<?xml version="1.0" standalone="no"?>
<!DOCTYPE svg PUBLIC "-//W3C//DTD SVG 20010904//EN"
 "http://www.w3.org/TR/2001/REC-SVG-20010904/DTD/svg10.dtd">
<svg version="1.0" xmlns="http://www.w3.org/2000/svg"
 width="128.000000pt" height="128.000000pt" viewBox="0 0 128.000000 128.000000"
 preserveAspectRatio="xMidYMid meet">

<g transform="translate(0.000000,128.000000) scale(0.100000,-0.100000)"
fill="#000000" stroke="none">
<path d="M488 1197 c-81 -28 -167 -85 -213 -142 -48 -58 -94 -162 -107 -239
-33 -197 83 -411 268 -498 61 -28 61 -29 123 -143 45 -83 68 -115 81 -115 13
0 36 32 81 115 62 114 62 115 123 143 219 103 328 365 244 590 -28 74 -46 102
-69 102 -29 0 -29 -12 3 -79 70 -150 44 -344 -63 -466 -40 -45 -138 -111 -179
-120 -24 -5 -38 -22 -81 -101 -29 -52 -56 -94 -60 -94 -4 0 -30 42 -57 93 -44
82 -55 94 -89 106 -287 101 -370 490 -148 700 79 75 167 114 270 119 101 5
164 -11 259 -69 54 -32 70 -38 77 -28 13 21 11 25 -22 54 -110 91 -294 122
-441 72z"/>
<path d="M533 1076 c-85 -28 -161 -93 -202 -174 -110 -217 39 -480 284 -500
166 -13 319 100 361 268 14 55 15 75 5 129 -22 117 -89 209 -189 258 -66 32
-190 42 -259 19z m207 -55 c76 -29 125 -74 161 -146 29 -60 31 -71 27 -142 -5
-90 -27 -139 -85 -195 -114 -111 -291 -111 -407 0 -91 88 -114 224 -55 340 17
34 47 75 67 92 81 66 197 87 292 51z"/>
<path d="M595 944 c-36 -19 -48 -37 -55 -84 -5 -32 -8 -35 -40 -38 -67 -7 -72
-28 -40 -152 27 -106 34 -110 180 -110 146 0 153 4 180 110 32 124 27 145 -40
152 -31 3 -35 7 -38 33 -4 46 -24 77 -59 92 -41 17 -51 16 -88 -3z m78 -47
c10 -6 19 -26 20 -42 2 -30 2 -30 -53 -30 -55 0 -55 0 -53 30 3 31 25 55 53
55 9 0 24 -6 33 -13z m-138 -149 c6 -13 17 -23 25 -23 8 0 19 10 25 23 8 18
18 22 55 22 37 0 47 -4 55 -22 6 -13 17 -23 25 -23 8 0 19 10 25 23 5 12 18
22 27 22 22 0 22 2 0 -85 l-18 -70 -114 0 -114 0 -18 70 c-22 87 -22 85 0 85
9 0 22 -10 27 -22z"/>
</g>
</svg>
